<svg width="40" height="40" viewBox="0 0 40 40" fill="none" xmlns="http://www.w3.org/2000/svg">
    <path
        d="M22.4 10C23.0122 9.99997 23.6012 10.2339 24.0466 10.6538C24.492 11.0738 24.7601 11.6481 24.796 12.2592L24.8 12.4C25.4365 12.4 26.047 12.6529 26.4971 13.1029C26.9471 13.553 27.2 14.1635 27.2 14.8C27.2 16.0419 26.7187 17.2355 25.8572 18.13C24.9957 19.0245 23.821 19.5502 22.58 19.5968L22.4 19.6H19.2L19.32 19.604C19.7009 19.6326 20.0591 19.7966 20.3296 20.0663C20.6002 20.336 20.7653 20.6936 20.7952 21.0744L20.8 21.2V24.4C20.8001 24.8037 20.6477 25.1925 20.3732 25.4884C20.0987 25.7844 19.7225 25.9657 19.32 25.996L19.2 26H17.6C17.1963 26.0001 16.8075 25.8477 16.5116 25.5732C16.2156 25.2987 16.0343 24.9225 16.004 24.52L16 24.4V21.2C15.9999 20.7963 16.1523 20.4075 16.4268 20.1116C16.7013 19.8156 17.0775 19.6343 17.48 19.604L17.6 19.6V18.8C17.6 18.6041 17.672 18.4149 17.8022 18.2685C17.9324 18.1221 18.1118 18.0285 18.3064 18.0056L18.4 18H22.4C23.2487 18 24.0626 17.6629 24.6627 17.0627C25.2629 16.4626 25.6 15.6487 25.6 14.8C25.6 14.6041 25.528 14.4149 25.3978 14.2685C25.2676 14.1221 25.0882 14.0285 24.8936 14.0056L24.8 14L24.796 14.1408C24.7615 14.7277 24.5129 15.2815 24.0972 15.6972C23.6815 16.1129 23.1277 16.3615 22.5408 16.396L22.4 16.4H14.4C13.7878 16.4 13.1988 16.1661 12.7534 15.7462C12.308 15.3262 12.0399 14.7519 12.004 14.1408L12 14V12.4C12 11.7878 12.2339 11.1988 12.6538 10.7534C13.0738 10.308 13.6481 10.0399 14.2592 10.004L14.4 10H22.4Z"
        fill="white" />
</svg>