<svg width="18" height="18" viewBox="0 0 18 18" fill="none" xmlns="http://www.w3.org/2000/svg">
<path fill-rule="evenodd" clip-rule="evenodd" d="M15.9861 10.9874C16.65 9.94556 17.0017 8.73538 16.9996 7.49997C16.9996 3.90999 14.0896 1 10.4996 1C9.21614 1 8.01964 1.372 7.01215 2.0135C6.34168 2.05132 5.67805 2.16847 5.03516 2.36249C5.73576 1.61562 6.58227 1.02056 7.52223 0.614185C8.46219 0.207806 9.47558 -0.00123705 10.4996 5.50693e-06C14.6416 5.50693e-06 17.9996 3.35799 17.9996 7.49997C18.0008 8.52401 17.7918 9.5374 17.3854 10.4774C16.979 11.4173 16.384 12.2638 15.6371 12.9644C15.8276 12.3329 15.9476 11.6709 15.9861 10.9874Z" fill="white"/>
<path fill-rule="evenodd" clip-rule="evenodd" d="M16.9661 11.3015C16.6044 11.9162 16.1569 12.4761 15.6371 12.9644C15.8276 12.3329 15.9471 11.6709 15.9856 10.9875C16.6496 9.94561 17.0015 8.73543 16.9996 7.49997C16.9996 3.90999 14.0896 1 10.4996 1C9.21613 1 8.01964 1.372 7.01215 2.0135C6.34168 2.05133 5.67805 2.16848 5.03516 2.3625C5.52348 1.84268 6.08345 1.39518 6.69815 1.0335C7.84991 0.354832 9.16279 -0.0020962 10.4996 9.26119e-06C14.6416 9.26119e-06 17.9996 3.35799 17.9996 7.49997C17.9996 7.5753 17.9984 7.65047 17.9961 7.72547C17.9608 8.9854 17.6064 10.2158 16.9661 11.3015Z" fill="white"/>
<path fill-rule="evenodd" clip-rule="evenodd" d="M14.9999 10.5002C14.9999 14.6422 11.6419 18.0002 7.49996 18.0002C3.35798 18.0002 0 14.6422 0 10.5002C0 6.35823 3.35798 3.00024 7.49996 3.00024C11.6419 3.00024 14.9999 6.35823 14.9999 10.5002ZM6.99996 8.00022C6.73475 8.00022 6.4804 8.10557 6.29286 8.29311C6.10533 8.48065 5.99997 8.735 5.99997 9.00021C5.99997 9.26543 6.10533 9.51978 6.29286 9.70732C6.4804 9.89485 6.73475 10.0002 6.99996 10.0002V8.00022ZM7.99996 7.00022V6.50023H6.99996V7.00022C6.46953 7.00022 5.96083 7.21094 5.58576 7.58601C5.21069 7.96108 4.99997 8.46978 4.99997 9.00021C4.99997 9.53064 5.21069 10.0393 5.58576 10.4144C5.96083 10.7895 6.46953 11.0002 6.99996 11.0002V13.0002C6.56497 13.0002 6.19447 12.7227 6.05647 12.3337C6.03599 12.2701 6.00296 12.2112 5.95933 12.1605C5.9157 12.1099 5.86236 12.0685 5.80245 12.0388C5.74254 12.0091 5.67729 11.9917 5.61056 11.9877C5.54383 11.9837 5.47697 11.9931 5.41393 12.0154C5.35089 12.0377 5.29296 12.0723 5.24357 12.1174C5.19417 12.1624 5.15431 12.2169 5.12635 12.2777C5.09838 12.3384 5.08288 12.4041 5.08075 12.4709C5.07863 12.5377 5.08992 12.6043 5.11397 12.6667C5.25183 13.0567 5.50724 13.3944 5.84501 13.6332C6.18278 13.872 6.58629 14.0003 6.99996 14.0002V14.5002H7.99996V14.0002C8.53039 14.0002 9.03909 13.7895 9.41416 13.4144C9.78924 13.0393 9.99995 12.5306 9.99995 12.0002C9.99995 11.4698 9.78924 10.9611 9.41416 10.586C9.03909 10.2109 8.53039 10.0002 7.99996 10.0002V8.00022C8.43496 8.00022 8.80545 8.27772 8.94345 8.66671C8.96393 8.73036 8.99696 8.78925 9.04059 8.8399C9.08422 8.89056 9.13757 8.93195 9.19747 8.96162C9.25738 8.9913 9.32263 9.00866 9.38936 9.01268C9.45609 9.0167 9.52296 9.0073 9.58599 8.98503C9.64903 8.96276 9.70696 8.92807 9.75635 8.88302C9.80575 8.83797 9.84561 8.78347 9.87358 8.72274C9.90154 8.66202 9.91705 8.5963 9.91917 8.52948C9.9213 8.46266 9.91 8.39609 9.88595 8.33372C9.74809 7.94369 9.49269 7.60601 9.15492 7.36719C8.81715 7.12836 8.41363 7.00016 7.99996 7.00022ZM7.99996 11.0002V13.0002C8.26517 13.0002 8.51953 12.8948 8.70706 12.7073C8.8946 12.5198 8.99995 12.2654 8.99995 12.0002C8.99995 11.735 8.8946 11.4806 8.70706 11.2931C8.51953 11.1056 8.26517 11.0002 7.99996 11.0002Z" fill="white"/>
</svg>
