<svg width="90" height="65" viewBox="0 0 90 65" fill="none" xmlns="http://www.w3.org/2000/svg">
<path d="M19.963 8.439C21.906 9.309 22.921 10.933 22.921 12.586C22.921 14.906 20.949 17.4 16.918 17.4H7V0H15.584C20.282 0 22.051 2.407 22.051 4.785C22.051 6.177 21.297 7.54 19.963 8.439ZM11.553 3.538V6.96H15.236C16.744 6.96 17.469 6.206 17.469 5.22C17.469 4.379 16.831 3.538 15.178 3.538H11.553ZM15.961 13.862C17.324 13.862 18.078 13.079 18.078 12.122C18.078 11.194 17.295 10.44 15.671 10.44H11.553V13.862H15.961Z" fill="white"/>
<path d="M42.1842 10.092C42.1842 14.471 38.5593 17.806 33.7163 17.806C28.9313 17.806 25.5673 14.5 25.5673 10.034V0H30.3813V9.976C30.3813 12.064 31.8892 13.601 33.8323 13.601C35.8623 13.601 37.3703 12.006 37.3703 9.889V0H42.1842V10.092Z" fill="white"/>
<path d="M55.7741 0H60.6171V2.204C60.5882 6.728 58.5291 9.715 54.9041 10.585V17.4H50.0901V10.556C46.4941 9.657 44.4641 6.699 44.4351 2.204V0H49.3071V2.204C49.3361 5.046 50.5252 6.757 52.5261 6.757C54.5561 6.757 55.7451 5.046 55.7741 2.204V0Z" fill="white"/>
<path d="M17.935 47.8H22.417V64H17.935V57.628H11.482V64H7V47.8H11.482V53.74H17.935V47.8Z" fill="white"/>
<path d="M33.9017 64.432C28.6907 64.432 24.8837 60.841 24.8837 55.9C24.8837 50.959 28.6907 47.395 33.9017 47.395C39.1127 47.395 42.8927 50.959 42.8927 55.9C42.8927 60.841 39.1127 64.432 33.9017 64.432ZM33.9017 60.436C36.4667 60.436 38.3297 58.546 38.3297 55.9C38.3297 53.227 36.4667 51.337 33.8747 51.337C31.3367 51.337 29.4467 53.227 29.4467 55.9C29.4467 58.546 31.3367 60.436 33.9017 60.436Z" fill="white"/>
<path d="M64.3459 64H60.1879L59.6479 52.66L56.2999 62.326H53.3299L50.0089 52.552L49.4419 64H45.3379L46.4179 47.8H51.7909L54.8419 56.008L57.8929 47.8H63.2659L64.3459 64Z" fill="white"/>
<path d="M71.9645 60.436H80.3615V64H67.6445V47.8H80.0915V51.364H71.9645V54.064H79.3895V57.574H71.9645V60.436Z" fill="white"/>
<g filter="url(#filter0_d_164_6)">
<path d="M18.339 24.4999H17.839V24.9999V27.2013C17.8248 28.562 17.5322 29.5868 17.0574 30.2572C16.5971 30.907 15.9449 31.2569 15.091 31.2569C14.2542 31.2569 13.6088 30.9092 13.1509 30.2584C12.6787 29.5874 12.3862 28.5619 12.372 27.2014V24.9999V24.4999H11.872H7H6.5V24.9999V27.2039H6.49999L6.50001 27.2072C6.51498 29.5267 7.04649 31.4939 8.07631 33.0095C9.04132 34.4296 10.424 35.4232 12.155 35.9375V42.3999V42.8999H12.655H17.469H17.969V42.3999V35.9701C19.7146 35.4679 21.1112 34.4738 22.0868 33.0469C23.128 31.5238 23.667 29.5417 23.682 27.2071V27.2039V24.9999V24.4999H23.182H18.339ZM46.5003 24.4999H46.0003V24.9999V35.0339C46.0003 39.7941 49.6064 43.3059 54.6493 43.3059C59.725 43.3059 63.6173 39.7886 63.6173 35.0919V24.9999V24.4999H63.1173H58.3033H57.8033V24.9999V34.8889C57.8033 36.7539 56.4957 38.1009 54.7653 38.1009C53.1171 38.1009 51.8143 36.8069 51.8143 34.9759V24.9999V24.4999H51.3143H46.5003ZM80.1456 34.6526C81.6331 33.597 82.3982 31.9929 82.3982 30.3359C82.3982 28.8832 81.8223 27.4128 80.6152 26.3093C79.4069 25.2047 77.6033 24.4999 75.1992 24.4999H66.7602H66.2602V24.9999V42.3999V42.8999H66.7602H71.4002H71.9002V42.3999V36.6649H73.3432C74.6317 36.6649 75.6507 37.2109 76.3628 38.1763C77.0861 39.157 77.5122 40.6012 77.5122 42.3999V42.8999H78.0122H82.6232H83.1232V42.3999C83.1232 38.7387 82.1422 36.2033 80.1456 34.6526ZM24.205 33.6999C24.205 39.3092 28.5447 43.3639 34.391 43.3639C40.2392 43.3639 44.548 39.3073 44.548 33.6999C44.548 28.0905 40.2371 24.0649 34.391 24.0649C28.5469 24.0649 24.205 28.0886 24.205 33.6999ZM38.647 33.6999C38.647 36.2759 36.8599 38.0719 34.391 38.0719C31.9181 38.0719 30.106 36.2718 30.106 33.6999C30.106 31.0951 31.922 29.2989 34.362 29.2989C36.8599 29.2989 38.647 31.0951 38.647 33.6999ZM75.0252 32.0979H71.9002V29.0379H75.0832C75.7862 29.0379 76.2044 29.2542 76.4481 29.5079C76.6984 29.7684 76.8162 30.1219 76.8162 30.4809C76.8162 30.8975 76.6643 31.2986 76.3777 31.5932C76.0964 31.8825 75.6573 32.0979 75.0252 32.0979Z" stroke="url(#paint0_linear_164_6)"/>
</g>
<defs>
<filter id="filter0_d_164_6" x="0" y="18.5649" width="89.623" height="32.2991" filterUnits="userSpaceOnUse" color-interpolation-filters="sRGB">
<feFlood flood-opacity="0" result="BackgroundImageFix"/>
<feColorMatrix in="SourceAlpha" type="matrix" values="0 0 0 0 0 0 0 0 0 0 0 0 0 0 0 0 0 0 127 0" result="hardAlpha"/>
<feOffset dy="1"/>
<feGaussianBlur stdDeviation="3"/>
<feBlend mode="normal" in2="BackgroundImageFix" result="effect1_dropShadow_164_6"/>
<feBlend mode="normal" in="SourceGraphic" in2="effect1_dropShadow_164_6" result="shape"/>
</filter>
<linearGradient id="paint0_linear_164_6" x1="7" y1="33.7144" x2="82.6232" y2="33.7144" gradientUnits="userSpaceOnUse">
<stop stop-color="white"/>
<stop offset="1" stop-color="white"/>
</linearGradient>
</defs>
</svg>
