<svg width="23" height="24" viewBox="0 0 23 24" fill="none" xmlns="http://www.w3.org/2000/svg">
<path d="M22.5983 21.7224L20.9578 16.8H19.1579L20.1575 21.6H2.55825L3.55785 16.8H1.75785L0.116254 21.7224C-0.300146 22.9752 0.437854 24 1.75785 24H20.9578C22.2779 24 23.0159 22.9752 22.5983 21.7224ZM17.3579 6C17.3579 4.4087 16.7257 2.88258 15.6005 1.75736C14.4753 0.632141 12.9492 0 11.3579 0C9.76655 0 8.24043 0.632141 7.11521 1.75736C5.98999 2.88258 5.35785 4.4087 5.35785 6C5.35785 11.73 11.3579 18 11.3579 18C11.3579 18 17.3579 11.73 17.3579 6ZM8.11785 6.072C8.11785 5.64657 8.20167 5.22532 8.36451 4.83229C8.52735 4.43926 8.76602 4.08216 9.0669 3.7814C9.36778 3.48063 9.72496 3.24209 10.118 3.07939C10.5111 2.9167 10.9324 2.83304 11.3579 2.8332C12.217 2.8332 13.0409 3.17449 13.6485 3.782C14.256 4.3895 14.5973 5.21346 14.5973 6.0726C14.5973 6.93174 14.256 7.7557 13.6485 8.3632C13.0409 8.97071 12.217 9.312 11.3579 9.312C10.4986 9.312 9.67444 8.97064 9.06683 8.36303C8.45921 7.75541 8.11785 6.9313 8.11785 6.072Z" fill="white"/>
</svg>
