<svg width="13" height="18" viewBox="0 0 13 18" fill="none" xmlns="http://www.w3.org/2000/svg">
<path d="M6.42857 0C2.8796 0 0 2.59192 0 5.78571C0 10.9286 6.42857 18 6.42857 18C6.42857 18 12.8571 10.9286 12.8571 5.78571C12.8571 2.59192 9.97755 0 6.42857 0ZM6.42857 9C5.91999 9 5.42283 8.84919 4.99996 8.56664C4.57709 8.28408 4.24751 7.88248 4.05288 7.41261C3.85826 6.94275 3.80733 6.42572 3.90655 5.92691C4.00577 5.4281 4.25068 4.96992 4.6103 4.6103C4.96992 4.25068 5.4281 4.00577 5.92691 3.90655C6.42572 3.80733 6.94275 3.85826 7.41261 4.05288C7.88248 4.24751 8.28408 4.57709 8.56664 4.99996C8.84919 5.42283 9 5.91999 9 6.42857C8.99926 7.11033 8.7281 7.76395 8.24603 8.24602C7.76395 8.7281 7.11033 8.99926 6.42857 9Z" fill="white"/>
</svg>
