<svg width="48" height="48" viewBox="0 0 48 48" fill="none" xmlns="http://www.w3.org/2000/svg">
    <g filter="url(#filter0_d_119_305)">
        <path
            d="M25.8 21.65V19.4M22.2 21.65V19.4M24 32C28.9707 32 33 27.9707 33 23C33 18.0293 28.9707 14 24 14C19.0293 14 15 18.0293 15 23C15 27.9707 19.0293 32 24 32Z"
            stroke="#5CE382" stroke-width="1.5" stroke-linecap="round" stroke-linejoin="round" />
        <path
            d="M23.9994 26.6001C24.9542 26.6001 25.8699 26.2209 26.545 25.5457C27.2201 24.8706 27.5994 23.9549 27.5994 23.0001V21.6501H20.3994V23.0001C20.3994 23.9549 20.7787 24.8706 21.4538 25.5457C22.129 26.2209 23.0446 26.6001 23.9994 26.6001Z"
            stroke="#5CE382" stroke-width="1.5" stroke-linecap="round" stroke-linejoin="round" />
        <path d="M24 31.9999V26.5999" stroke="#5CE382" stroke-width="1.5" stroke-linecap="round"
            stroke-linejoin="round" />
    </g>
    <defs>
        <filter id="filter0_d_119_305" x="0.25" y="0.25" width="47.5" height="47.5"
            filterUnits="userSpaceOnUse" color-interpolation-filters="sRGB">
            <feFlood flood-opacity="0" result="BackgroundImageFix" />
            <feColorMatrix in="SourceAlpha" type="matrix"
                values="0 0 0 0 0 0 0 0 0 0 0 0 0 0 0 0 0 0 127 0" result="hardAlpha" />
            <feOffset dy="1" />
            <feGaussianBlur stdDeviation="7" />
            <feColorMatrix type="matrix"
                values="0 0 0 0 0.360784 0 0 0 0 0.890196 0 0 0 0 0.509804 0 0 0 0.35 0" />
            <feBlend mode="normal" in2="BackgroundImageFix" result="effect1_dropShadow_119_305" />
            <feBlend mode="normal" in="SourceGraphic" in2="effect1_dropShadow_119_305"
                result="shape" />
        </filter>
    </defs>
</svg>