<svg width="19" height="22" viewBox="0 0 19 22" fill="none" xmlns="http://www.w3.org/2000/svg">
<g id="Group 304">
<path id="Polygon 3" d="M8.65764 12.6262C8.99593 12.2202 9.61942 12.2202 9.95771 12.6262L13.087 16.3814C13.3485 16.6952 13.3485 17.151 13.087 17.4647L9.95771 21.2199C9.61942 21.6259 8.99593 21.6259 8.65764 21.2199L5.52832 17.4647C5.26682 17.151 5.26682 16.6952 5.52832 16.3814L8.65764 12.6262Z" fill="#00FFA3"/>
<path id="Polygon 6" d="M8.65764 0.78004C8.99593 0.374094 9.61942 0.374094 9.95771 0.78004L13.087 4.53523C13.3485 4.84902 13.3485 5.30482 13.087 5.61862L9.95771 9.37381C9.61942 9.77975 8.99593 9.77975 8.65764 9.37381L5.52832 5.61862C5.26682 5.30482 5.26682 4.84902 5.52832 4.53523L8.65764 0.78004Z" fill="#00FFA3"/>
<path id="Polygon 4" d="M3.58061 6.70314C3.9189 6.29719 4.54239 6.29719 4.88068 6.70314L8.01 10.4583C8.2715 10.7721 8.2715 11.2279 8.01 11.5417L4.88068 15.2969C4.54239 15.7028 3.9189 15.7028 3.58061 15.2969L0.45129 11.5417C0.189796 11.2279 0.189796 10.7721 0.45129 10.4583L3.58061 6.70314Z" fill="#00FFA3"/>
<path id="Polygon 5" d="M13.7345 6.70314C14.0728 6.29719 14.6963 6.29719 15.0346 6.70314L18.1639 10.4583C18.4254 10.7721 18.4254 11.2279 18.1639 11.5417L15.0346 15.2969C14.6963 15.7028 14.0728 15.7028 13.7345 15.2969L10.6052 11.5417C10.3437 11.2279 10.3437 10.7721 10.6052 10.4583L13.7345 6.70314Z" fill="#00FFA3"/>
</g>
</svg>
