<svg width="14" height="15" viewBox="0 0 14 15" fill="none" xmlns="http://www.w3.org/2000/svg">
    <path id="Vector" fill-rule="evenodd" clip-rule="evenodd"
        d="M9.98896 8.95498C10.6442 8.02564 11.0303 6.88409 11.0303 5.65034C11.0303 2.52981 8.5609 0 5.51489 0C2.46888 0 -9.53674e-06 2.52981 -9.53674e-06 5.65034C-9.53674e-06 8.77036 2.46888 11.3007 5.51489 11.3007C6.58861 11.3007 7.59068 10.9863 8.4382 10.4425L11.8894 14.3984C12.3671 14.8886 13.1354 14.9043 13.6305 14.4423L13.6513 14.421L13.6721 14.3984C14.123 13.8925 14.1086 13.1053 13.6305 12.6155L9.98896 8.95498ZM9.75715 5.65034C9.75715 3.25003 7.85761 1.30393 5.51472 1.30393C3.17184 1.30393 1.2723 3.25003 1.2723 5.65034C1.2723 8.05065 3.17184 9.99678 5.51472 9.99678C7.85761 9.99678 9.75715 8.05065 9.75715 5.65034Z"
        fill="white" fill-opacity="0.2" />
</svg>